<svg xmlns="http://www.w3.org/2000/svg" width="156" height="288" version="1.1" viewBox="0 0 156 288" role="img" aria-labelledby="muscle-map-front-title muscle-map-front-desc" data-component="muscle-map-front" data-interactive="true" data-muscle-count="34"><title id="muscle-map-front-title">Interactive Front Muscle Anatomy Map - ChunkItUp.com</title><desc id="muscle-map-front-desc">Anatomical diagram showing 34 major muscle groups of the human front body, including pectorals, deltoids, biceps, abs, quadriceps, and calves. Click any muscle to select it for exercise targeting. Each muscle is labeled with its anatomical name, function, and recommended exercises for training.</desc><defs><linearGradient id="primary" x1="0%" y1="100%" x2="0%" y2="0%"><stop offset="0" stop-color="#ff6b6b"></stop><stop offset=".25" stop-color="#ee5a52"></stop><stop offset=".5" stop-color="#dc2626"></stop><stop offset=".75" stop-color="#b91c1c"></stop><stop offset="1" stop-color="#7f1d1d"></stop></linearGradient><linearGradient id="secondary" x1="0%" y1="100%" x2="0%" y2="0%"><stop offset="0" stop-color="#fbbf24"></stop><stop offset=".25" stop-color="#f59e0b"></stop><stop offset=".5" stop-color="#f97316"></stop><stop offset=".75" stop-color="#ea580c"></stop><stop offset="1" stop-color="#c2410c"></stop></linearGradient><linearGradient id="stabilizers" x1="0%" y1="100%" x2="0%" y2="0%"><stop offset="0" stop-color="#3b82f6"></stop><stop offset=".25" stop-color="#2563eb"></stop><stop offset=".5" stop-color="#1d4ed8"></stop><stop offset=".75" stop-color="#1e40af"></stop><stop offset="1" stop-color="#1e3a8a"></stop></linearGradient></defs><g id="head"><path id="head" class="fill-gray-600 transition-all duration-200" aria-label="Head - Head movement and facial expressions" role="button" tabindex="0" data-muscle-name="Head" data-muscle-common="Head and Face" data-muscle-function="Head movement and facial expressions" data-muscle-region="head" data-muscle-exercises="neck stretches, head rotations" data-keywords="head face neck cervical movement" d="M69.0925903,35c0,4.25,2.722229,8.833313,8.9074097,8.833313s8.9074097-4.583313,8.9074097-8.833313c1.333313-.083313,2.9383545-.4980469,2.944458-3.666687.005127-2.666626-1.416687-3.194397-2.666687-2.666626v-6.888916c0-4.611084-4.722229-9.222229-9.1851807-9.222229s-9.1851807,4.611145-9.1851807,9.222229v6.888916c-1.25-.527771-2.671814,0-2.666687,2.666626.0061035,3.1686401,1.611145,3.583374,2.944458,3.666687Z" style="cursor: pointer; outline: none; -webkit-tap-highlight-color: transparent;"></path></g><g id="neck"><path id="sternocleidomastoid" class="fill-gray-600 transition-all duration-200" aria-label="Sternocleidomastoid - Head rotation and flexion" role="button" tabindex="0" data-muscle-name="Sternocleidomastoid" data-muscle-common="SCM Neck Muscle" data-muscle-function="Head rotation and flexion" data-muscle-region="neck" data-muscle-exercises="neck flexion, head rotations, neck bridges" data-keywords="sternocleidomastoid SCM neck rotation flexion" d="M85.666687,43.833313s-2.7037354.9259644-7.666687.9259644-7.666687-.9259644-7.666687-.9259644c0,0,3.4074097,10.2592773,7.666687,15.2963257,4.2592773-5.0370483,7.666687-15.2963257,7.666687-15.2963257Z" style="cursor: pointer; outline: none; -webkit-tap-highlight-color: transparent;"></path><path id="trapezius" class="fill-gray-600 transition-all duration-200" aria-label="Trapezius (Upper) - Shoulder elevation and neck support" role="button" tabindex="0" data-muscle-name="Trapezius (Upper)" data-muscle-common="Upper Traps" data-muscle-function="Shoulder elevation and neck support" data-muscle-region="neck" data-muscle-exercises="shrugs, upright rows, overhead press" data-keywords="trapezius upper traps neck shoulders shrugs" d="M75.5184937,58.722229c-7.6296387-2.0370483-14.8518066-2.222229-14.8518066-2.222229,0,0,6.3703613-4.555542,10.222168-7.0370483,0,0,2.4815063,7.0370483,4.6296387,9.2592773ZM80.4815063,58.722229c7.6296387-2.0370483,14.8518066-2.222229,14.8518066-2.222229,0,0-6.3703613-4.555542-10.222168-7.0370483,0,0-2.4815063,7.0370483-4.6296387,9.2592773Z" style="cursor: pointer; outline: none; -webkit-tap-highlight-color: transparent;"></path></g><g id="chest"><path id="pectoralis_major" class="fill-gray-600 transition-all duration-200" aria-label="Pectoralis Major - Shoulder flexion, adduction, and internal rotation" role="button" tabindex="0" data-muscle-name="Pectoralis Major" data-muscle-common="Pecs" data-muscle-function="Shoulder flexion, adduction, and internal rotation" data-muscle-region="chest" data-muscle-exercises="bench press, push-ups, chest flyes, dips" data-keywords="pectoralis major pecs chest bench press push-ups" d="M76.3148193,68.555542l-20.583374-3.916626c1.388916-6.333374,19.305603-9.083374,20.583374,3.916626ZM79.6851807,68.555542l20.583374-3.916626c-1.388916-6.333374-19.305603-9.083374-20.583374,3.916626Z" style="cursor: pointer; outline: none; -webkit-tap-highlight-color: transparent;"></path><path id="pectoralis_minor" class="fill-gray-600 transition-all duration-200" aria-label="Pectoralis Minor - Shoulder blade stabilization" role="button" tabindex="0" data-muscle-name="Pectoralis Minor" data-muscle-common="Upper Chest" data-muscle-function="Shoulder blade stabilization" data-muscle-region="chest" data-muscle-exercises="incline bench press, dips, chest dips" data-keywords="pectoralis minor upper chest shoulder blade" d="M55.5370483,66.666687l19.5247803,3.1845093c.7224121.1178589,1.2529907.7418823,1.2529907,1.473877v8.0670776c0,.7197266-.5143433,1.3305664-1.2207031,1.4685669-9.2557373,1.8076172-21.1526489,2.0804443-19.5570679-14.1940308ZM100.4629517,66.666687l-19.5247803,3.1845093c-.7224121.1178589-1.2529907.7418823-1.2529907,1.473877v8.0670776c0,.7197266.5143433,1.3305664,1.2207031,1.4685669,9.2557373,1.8076172,21.1526489,2.0804443,19.5570679-14.1940308Z" style="cursor: pointer; outline: none; -webkit-tap-highlight-color: transparent;"></path></g><g id="shoulders"><path id="deltoid_anterior_head" class="fill-gray-600 transition-all duration-200" aria-label="Anterior Deltoid - Shoulder flexion and internal rotation" role="button" tabindex="0" data-muscle-name="Anterior Deltoid" data-muscle-common="Front Delts" data-muscle-function="Shoulder flexion and internal rotation" data-muscle-region="shoulders" data-muscle-exercises="overhead press, front raises, push-ups, incline press" data-keywords="anterior deltoid front delts shoulders press raises" d="M61.2592773,58.722229c-9,1.444458-7.888916,13.555542-7.888916,13.555542,0,0-3.277771,3.055542-6.944458,5.333374-1.888855-19.166687,11.611145-22.388916,14.833374-18.888916ZM102.6296387,72.277771s3.277771,3.055542,6.944458,5.333374c1.888855-19.166687-11.611145-22.388916-14.833374-18.888916,9,1.444458,7.888916,13.555542,7.888916,13.555542Z" style="cursor: pointer; outline: none; -webkit-tap-highlight-color: transparent;"></path><path id="deltoid_middle_head" class="fill-gray-600 transition-all duration-200" aria-label="Middle Deltoid - Shoulder abduction" role="button" tabindex="0" data-muscle-name="Middle Deltoid" data-muscle-common="Side Delts" data-muscle-function="Shoulder abduction" data-muscle-region="shoulders" data-muscle-exercises="lateral raises, overhead press, upright rows" data-keywords="middle deltoid lateral delts side shoulders" d="M44.4259033,79.666687c-2-6.5-2.388855-18.666687,7.5-21.5-8.6422119,6.111084-7.5,21.5-7.5,21.5ZM111.5740967,79.666687c2-6.5,2.388855-18.666687-7.5-21.5,8.6422119,6.111084,7.5,21.5,7.5,21.5Z" style="cursor: pointer; outline: none; -webkit-tap-highlight-color: transparent;"></path></g><g id="biceps"><path id="biceps_brachii_long_head" class="fill-gray-600 transition-all duration-200" aria-label="Biceps Brachii (Long Head) - Elbow flexion and forearm supination" role="button" tabindex="0" data-muscle-name="Biceps Brachii (Long Head)" data-muscle-common="Outer Bicep" data-muscle-function="Elbow flexion and forearm supination" data-muscle-region="arms" data-muscle-exercises="curls, chin-ups, hammer curls, preacher curls" data-keywords="biceps long head arms curls chin-ups" d="M41.7036743,99.277771c-1.444397-6.666626-1.8399658-12.777771,1.5800171-16.5s9.4199829-6.944458,9.4199829-6.944458c1.111145,10.388916-2.388855,21.055603-11,23.444458ZM103.2963257,75.833313c-1.111145,10.388916,2.388855,21.055603,11,23.444458,1.444397-6.666626,1.8399658-12.777771-1.5800171-16.5s-9.4199829-6.944458-9.4199829-6.944458Z" style="cursor: pointer; outline: none; -webkit-tap-highlight-color: transparent;"></path><path id="biceps_brachii_short_head" class="fill-gray-600 transition-all duration-200" aria-label="Biceps Brachii (Short Head) - Elbow flexion" role="button" tabindex="0" data-muscle-name="Biceps Brachii (Short Head)" data-muscle-common="Inner Bicep" data-muscle-function="Elbow flexion" data-muscle-region="arms" data-muscle-exercises="concentration curls, close-grip curls, cable curls" data-keywords="biceps short head inner arms curls" d="M54.7036743,75.833313c1.3399048,6.0458374,1,15.888916-7.444397,24.277832,7-11.277832,7.444397-24.277832,7.444397-24.277832ZM101.2963257,75.833313c-1.3399048,6.0458374-1,15.888916,7.444397,24.277832-7-11.277832-7.444397-24.277832-7.444397-24.277832Z" style="cursor: pointer; outline: none; -webkit-tap-highlight-color: transparent;"></path></g><g id="forearms"><path id="brachioradialis" class="fill-gray-600 transition-all duration-200" aria-label="Brachioradialis - Elbow flexion and forearm rotation" role="button" tabindex="0" data-muscle-name="Brachioradialis" data-muscle-common="Forearm" data-muscle-function="Elbow flexion and forearm rotation" data-muscle-region="forearms" data-muscle-exercises="hammer curls, reverse curls, rows" data-keywords="brachioradialis forearm elbow flexion grip" d="M25.6400757,132.4992676c-1.1851807-.4119263-2.3743286-.7174683-3.343811-.7399902,5.0370483-7.333374,6.888916-16,8.0740967-22.444458s5.777771-10.8148193,7.7036743-11.333313c1.2592773,4.5925903-.5184937,10.3703613-1.9259033,13.555542-1.2231445,2.7681274-8.597229,17.2229004-10.5080566,20.9622192ZM130.3599243,132.4992676c1.1851807-.4119263,2.3743286-.7174683,3.343811-.7399902-5.0370483-7.333374-6.888916-16-8.0740967-22.444458s-5.777771-10.8148193-7.7036743-11.333313c-1.2592773,4.5925903.5184937,10.3703613,1.9259033,13.555542,1.2231445,2.7681274,8.597229,17.2229004,10.5080566,20.9622192Z" style="cursor: pointer; outline: none; -webkit-tap-highlight-color: transparent;"></path><path id="flexor_carpi_ulnaris" class="fill-gray-600 transition-all duration-200" aria-label="Flexor Carpi Ulnaris - Wrist flexion and grip strength" role="button" tabindex="0" data-muscle-name="Flexor Carpi Ulnaris" data-muscle-common="Wrist Flexor" data-muscle-function="Wrist flexion and grip strength" data-muscle-region="forearms" data-muscle-exercises="wrist curls, farmer carries, dead hangs" data-keywords="flexor carpi ulnaris wrist forearm grip" d="M41.8518677,110.944458c-1.5455933,2.2874756-10.1552124,17.8267822-12.9623413,22.9071045-.5664673-.2687378-1.2050781-.5559692-1.8797607-.8320312,2.0794678-4.3054199,9.8999023-20.4870605,12.1013184-24.8898926,2.5681763-5.1362915,6.2963257-5.6296387,6.2963257-5.6296387,0,0-1.7037354,5.7037354-3.555542,8.444458ZM116.888916,108.1296387c-2.5681763-5.1362915-6.2963257-5.6296387-6.2963257-5.6296387,0,0,1.7037354,5.7037354,3.555542,8.444458,1.5455933,2.2874756,10.1552124,17.8267822,12.9623413,22.9071045.5664673-.2687378,1.2050781-.5559692,1.8797607-.8320312-2.0794678-4.3054199-9.8999023-20.4870605-12.1013184-24.8898926Z" style="cursor: pointer; outline: none; -webkit-tap-highlight-color: transparent;"></path><path id="extensor_carpi_ulnaris" class="fill-gray-600 transition-all duration-200" aria-label="Extensor Carpi Ulnaris - Wrist extension" role="button" tabindex="0" data-muscle-name="Extensor Carpi Ulnaris" data-muscle-common="Wrist Extensor" data-muscle-function="Wrist extension" data-muscle-region="forearms" data-muscle-exercises="wrist extensions, reverse curls, farmer carries" data-keywords="extensor carpi ulnaris wrist forearm grip" d="M47.555542,104.3518677c-.2962646,4.5925903-16.5184937,30.5925903-16.5184937,30.5925903,0,0-.4245605-.2363892-1.0932617-.5759277,3.3377686-5.9362793,14.857605-26.4119873,15.6488037-27.6463013.9259033-1.444458,1.9629517-2.3703613,1.9629517-2.3703613ZM108.444458,104.3518677c.2962646,4.5925903,16.5184937,30.5925903,16.5184937,30.5925903,0,0,.4245605-.2363892,1.0932617-.5759277-3.3377686-5.9362793-14.857605-26.4119873-15.6488037-27.6463013-.9259033-1.444458-1.9629517-2.3703613-1.9629517-2.3703613Z" style="cursor: pointer; outline: none; -webkit-tap-highlight-color: transparent;"></path></g><g id="hands"><path id="hands" class="fill-gray-600 transition-all duration-200" aria-label="Hands - Grip and fine motor control" role="button" tabindex="0" data-muscle-name="Hands" data-muscle-common="Hands and Fingers" data-muscle-function="Grip and fine motor control" data-muscle-region="hands" data-muscle-exercises="grip trainers, dead hangs, farmer carries" data-keywords="hands fingers grip strength" d="M28.222229,136.4259033c.4814453.666687.111084,4.666687-1.2124634,6.9259644s-1.6394043,7.2962646-1.6764526,10c-.0370483,2.7036743-1.888855,4.111084-1.8518677,2.4074097.0370483-1.7037354,0-5.111145,0-6,0-.888916-.5925903-1.2592773-1-.229187-.4074097,1.0300293-2.2314453,6.5740356-2.9351196,8.055481-.7037354,1.4815063-2.4641113,1.1428833-2.0197144-.7089844.444458-1.8518677,1.621521-5.1543579,2.1400757-6.5988159.5184937-1.444458.2592163-2.1481323-.5185547-1.111084s-3,5.4814453-3.9629517,6.888855-3,1.0370483-2-.9259033,2.5184937-5.888916,2.9259033-7.1851807c.4074097-1.2963257.0740967-2-.555542-1.0740967-.6296387.9259644-2.5184937,3.333374-3.7036743,5.0740967s-2.888916.4814453-2.1481934-.777771c.7407837-1.2592773,4.2963257-7.6296387,5.1851807-8.8518677.888916-1.222229.2823486-2.5348511-1.4814453-1.222229-3.1851807,2.3703613-4.2592773,1.4815063-3,.1481323,1.2592773-1.333313,3.4074097-3.666626,5.2592773-4.5184937,1.8518066-.8518677,4.444397-1.777771,5.777771-3.0740967,0,0,3.2962646-.555542,6.777771,2.777771ZM146.2963257,151.166687c-.7407837-1.2592773-4.2963257-7.6296387-5.1851807-8.8518677-.888916-1.222229-.2823486-2.5348511,1.4814453-1.222229,3.1851807,2.3703613,4.2592773,1.4815063,3,.1481323-1.2592773-1.333313-3.4074097-3.666626-5.2592773-4.5184937-1.8518066-.8518677-4.444397-1.777771-5.777771-3.0740967,0,0-3.2962646-.555542-6.777771,2.777771-.4814453.666687-.111084,4.666687,1.2124634,6.9259644s1.6394043,7.2962646,1.6764526,10c.0370483,2.7036743,1.888855,4.111084,1.8518677,2.4074097-.0370483-1.7037354,0-5.111145,0-6,0-.888916.5925903-1.2592773,1-.229187.4074097,1.0300293,2.2314453,6.5740356,2.9351196,8.055481.7037354,1.4815063,2.4641113,1.1428833,2.0197144-.7089844-.444458-1.8518677-1.621521-5.1543579-2.1400757-6.5988159-.5184937-1.444458-.2592163-2.1481323.5185547-1.111084s3,5.4814453,3.9629517,6.888855,3,1.0370483,2-.9259033-2.5184937-5.888916-2.9259033-7.1851807c-.4074097-1.2963257-.0740967-2,.555542-1.0740967.6296387.9259644,2.5184937,3.333374,3.7036743,5.0740967s2.888916.4814453,2.1481934-.777771Z" style="cursor: pointer; outline: none; -webkit-tap-highlight-color: transparent;"></path></g><g id="abs"><path id="serratus_anterior" class="fill-gray-600 transition-all duration-200" aria-label="Serratus Anterior - Shoulder blade protraction" role="button" tabindex="0" data-muscle-name="Serratus Anterior" data-muscle-common="Boxer's Muscle" data-muscle-function="Shoulder blade protraction" data-muscle-region="core" data-muscle-exercises="push-ups, overhead press, pull-overs, ab rollouts" data-keywords="serratus anterior boxer muscle core abs" d="M56.7592773,81.333313c1.277771,2.111145,8.666626,4.388916,8.666626,4.388916v7.222229c-5.944458-1.944458-8.9788818-7.145874-8.666626-11.611145ZM99.2407227,81.333313c-1.277771,2.111145-8.666626,4.388916-8.666626,4.388916v7.222229c5.944458-1.944458,8.9788818-7.145874,8.666626-11.611145Z" style="cursor: pointer; outline: none; -webkit-tap-highlight-color: transparent;"></path><path id="obliques_upper" class="fill-gray-600 transition-all duration-200" aria-label="External Obliques (Upper) - Torso rotation and side flexion" role="button" tabindex="0" data-muscle-name="External Obliques (Upper)" data-muscle-common="Side Abs" data-muscle-function="Torso rotation and side flexion" data-muscle-region="core" data-muscle-exercises="Russian twists, side planks, wood chops, oblique crunches" data-keywords="obliques side abs core rotation twists" d="M55.7036743,87.972229h1.333374c3,6.194458,8.388855,6.694458,8.388855,6.694458,0,0-1.222229,12,0,18.388855-3.111084-3.166626-7.111084-5.166626-7.111084-5.166626.722229-9.555603-.9173584-13.7386475-2.9228516-18.444458.0487061-.675354.3117065-1.472229.3117065-1.472229ZM98.9629517,87.972229c-3,6.194458-8.388855,6.694458-8.388855,6.694458,0,0,1.222229,12,0,18.388855,3.111084-3.166626,7.111084-5.166626,7.111084-5.166626-.722229-9.555603.9173584-13.7386475,2.9228516-18.444458-.0487061-.675354-.3117065-1.472229-.3117065-1.472229h-1.333374Z" style="cursor: pointer; outline: none; -webkit-tap-highlight-color: transparent;"></path><path id="obliques_lower" class="fill-gray-600 transition-all duration-200" aria-label="External Obliques (Lower) - Hip flexion and rotation" role="button" tabindex="0" data-muscle-name="External Obliques (Lower)" data-muscle-common="Lower Side Abs" data-muscle-function="Hip flexion and rotation" data-muscle-region="core" data-muscle-exercises="hanging leg raises, bicycle crunches, side planks" data-keywords="obliques lower abs core hip flexion" d="M65.222229,129.5c-3.5185547-5-7.8148193-7.3703613-7.8148193-7.3703613v-11.333313c1.222229-1.111145,2.9259033-1.0740967,7.8148193,4.6295776v14.0740967ZM98.5925903,110.7963257c-1.222229-1.111145-2.9259033-1.0740967-7.8148193,4.6295776v14.0740967c3.5185547-5,7.8148193-7.3703613,7.8148193-7.3703613v-11.333313Z" style="cursor: pointer; outline: none; -webkit-tap-highlight-color: transparent;"></path><path id="tendinous_inscriptions_upper" class="fill-gray-600 transition-all duration-200" aria-label="Rectus Abdominis (Upper) - Spinal flexion" role="button" tabindex="0" data-muscle-name="Rectus Abdominis (Upper)" data-muscle-common="Upper Abs" data-muscle-function="Spinal flexion" data-muscle-region="core" data-muscle-exercises="crunches, sit-ups, cable crunches" data-keywords="rectus abdominis upper abs six pack crunches" d="M76.3148193,84.833313c.8703613,1.7037354.861084,3.916687-1.0185547,5.333374-3.8950806,2.93573-7.9259033,5.1481323-7.9259033,5.1481323v-9.3703613s.888916-1.5925903,3.3703613-2.666687c2.4815063-1.0740356,4.7037354-.1481323,5.5740967,1.555542ZM88.6296387,85.944458s-.888916-1.5925903-3.3703613-2.666687c-2.4815063-1.0740356-4.7037354-.1481323-5.5740967,1.555542-.8703613,1.7037354-.861084,3.916687,1.0185547,5.333374,3.8950806,2.93573,7.9259033,5.1481323,7.9259033,5.1481323v-9.3703613Z" style="cursor: pointer; outline: none; -webkit-tap-highlight-color: transparent;"></path><path id="tendinous_inscriptions_middle" class="fill-gray-600 transition-all duration-200" aria-label="Rectus Abdominis (Middle) - Spinal flexion" role="button" tabindex="0" data-muscle-name="Rectus Abdominis (Middle)" data-muscle-common="Middle Abs" data-muscle-function="Spinal flexion" data-muscle-region="core" data-muscle-exercises="crunches, planks, leg raises" data-keywords="rectus abdominis middle abs core six pack" d="M77.333313,96.722229c0,4.9259033-6.0740356,6.666687-9.9629517,6v-4.7407227s3.5184937-3.4815063,5.777771-5.0370483,4.1851807.3703613,4.1851807,3.777771ZM88.6296387,97.9815063s-3.5184937-3.4815063-5.777771-5.0370483-4.1851807.3703613-4.1851807,3.777771c0,4.9259033,6.0740356,6.666687,9.9629517,6v-4.7407227Z" style="cursor: pointer; outline: none; -webkit-tap-highlight-color: transparent;"></path><path id="tendinous_inscriptions_lower" class="fill-gray-600 transition-all duration-200" aria-label="Rectus Abdominis (Lower) - Hip flexion and spinal stabilization" role="button" tabindex="0" data-muscle-name="Rectus Abdominis (Lower)" data-muscle-common="Lower Abs" data-muscle-function="Hip flexion and spinal stabilization" data-muscle-region="core" data-muscle-exercises="leg raises, reverse crunches, mountain climbers" data-keywords="rectus abdominis lower abs core leg raises" d="M67.3703613,111.6851807v-6.333313c5.8518677-3.0370483,9.9629517-1.4815063,9.9629517,1.111084,0,5.9259644-3.7036743,7.4074097-9.9629517,5.222229ZM78.666687,106.4629517c0,5.9259644,3.7036743,7.4074097,9.9629517,5.222229v-6.333313c-5.8518677-3.0370483-9.9629517-1.4815063-9.9629517,1.111084Z" style="cursor: pointer; outline: none; -webkit-tap-highlight-color: transparent;"></path><path id="rectus_abdominis" class="fill-gray-600 transition-all duration-200" aria-label="Rectus Abdominis - Spinal flexion and core stability" role="button" tabindex="0" data-muscle-name="Rectus Abdominis" data-muscle-common="Six Pack" data-muscle-function="Spinal flexion and core stability" data-muscle-region="core" data-muscle-exercises="crunches, planks, leg raises, sit-ups" data-keywords="rectus abdominis six pack abs core crunches" d="M88.7407227,118.833313c-.111084-3.916626-2.444397-4.805542-4.5369873-4.805542-3.2592773,0-3.9074097,2.694458-6.2037354,2.694458s-2.944458-2.694458-6.2037354-2.694458c-2.0925903,0-4.4259033.888916-4.5369873,4.805542-.111145,3.916687,2.222229,27.111145,10.7407227,27.111145s10.8518677-23.194458,10.7407227-27.111145Z" style="cursor: pointer; outline: none; -webkit-tap-highlight-color: transparent;"></path></g><g id="thighs_hips"><path id="tensor_fasciae_latae" class="fill-gray-600 transition-all duration-200" aria-label="Tensor Fasciae Latae - Hip flexion and abduction" role="button" tabindex="0" data-muscle-name="Tensor Fasciae Latae" data-muscle-common="TFL Hip Muscle" data-muscle-function="Hip flexion and abduction" data-muscle-region="legs" data-muscle-exercises="leg raises, lunges, squats, hip abduction" data-keywords="tensor fasciae latae TFL hip flexion IT band" d="M53.7592773,137.888916c.5-5.666687,2.333313-13.277771,2.333313-13.277771l1.666687.5s-2.222229,8.666626-4,12.777771ZM102.2407227,137.888916c-.5-5.666687-2.333313-13.277771-2.333313-13.277771l-1.666687.5s2.222229,8.666626,4,12.777771Z" style="cursor: pointer; outline: none; -webkit-tap-highlight-color: transparent;"></path><path id="pectineus" class="fill-gray-600 transition-all duration-200" aria-label="Pectineus - Hip flexion and adduction" role="button" tabindex="0" data-muscle-name="Pectineus" data-muscle-common="Hip Adductor" data-muscle-function="Hip flexion and adduction" data-muscle-region="legs" data-muscle-exercises="adductor machine, squats, lunges" data-keywords="pectineus hip adductor inner thigh" d="M62.4814453,130.6851807c2.2592773.7037354,1.444458,3.1663818,1.444458,3.1663818-1.888855-.5737915-1.444458-3.1663818-1.444458-3.1663818ZM92.0740967,133.8515625c1.888855-.5737915,1.444458-3.1663818,1.444458-3.1663818-2.2592773.7037354-1.444458,3.1663818-1.444458,3.1663818Z" style="cursor: pointer; outline: none; -webkit-tap-highlight-color: transparent;"></path><path id="adductor_longus" class="fill-gray-600 transition-all duration-200" aria-label="Adductor Longus - Hip adduction" role="button" tabindex="0" data-muscle-name="Adductor Longus" data-muscle-common="Inner Thigh" data-muscle-function="Hip adduction" data-muscle-region="legs" data-muscle-exercises="adductor machine, side lunges, sumo squats" data-keywords="adductor longus inner thigh hip adduction" d="M65.222229,140.277771c-.777771-1.333313-1.1481934-4.4814453-.7407837-5.555542,2.111145.333313,3.5185547,2.666687,3.1852417,4.444458-.333374,1.777771-1.666687,2.444458-2.444458,1.111084ZM88.333313,139.166687c.333374,1.777771,1.666687,2.444458,2.444458,1.111084.777771-1.333313,1.1481934-4.4814453.7407837-5.555542-2.111145.333313-3.5185547,2.666687-3.1852417,4.444458Z" style="cursor: pointer; outline: none; -webkit-tap-highlight-color: transparent;"></path><path id="gracilis" class="fill-gray-600 transition-all duration-200" aria-label="Gracilis - Hip adduction and knee flexion" role="button" tabindex="0" data-muscle-name="Gracilis" data-muscle-common="Inner Thigh" data-muscle-function="Hip adduction and knee flexion" data-muscle-region="legs" data-muscle-exercises="leg curls, adductor exercises, side lunges" data-keywords="gracilis inner thigh hip adduction" d="M74.666687,149.4629517c2.3703613,2.8148193,1.555542,13.7037354-1.0370483,20.444458-.5185547-8-3.6296387-17.1851807-4.5925903-20.222229-.9630127-3.0370483-1.6296387-7.1851807,0-11.1851807.7407227,4.5925903,3.2592163,8.1481323,5.6296387,10.9629517ZM86.9629517,138.5c-.7407227,4.5925903-3.2592163,8.1481323-5.6296387,10.9629517-2.3703613,2.8148193-1.555542,13.7037354,1.0370483,20.444458.5185547-8,3.6296387-17.1851807,4.5925903-20.222229.9630127-3.0370483,1.6296387-7.1851807,0-11.1851807Z" style="cursor: pointer; outline: none; -webkit-tap-highlight-color: transparent;"></path><path id="sartorius" class="fill-gray-600 transition-all duration-200" aria-label="Sartorius - Hip and knee flexion" role="button" tabindex="0" data-muscle-name="Sartorius" data-muscle-common="Longest Muscle" data-muscle-function="Hip and knee flexion" data-muscle-region="legs" data-muscle-exercises="lunges, leg raises, cycling" data-keywords="sartorius hip knee flexion longest muscle" d="M60.5925903,130.944458c3.4763794,16.666687,13.555542,22.555542,9.888855,50.666687.222229-18.777832-13.0740356-38.333374-9.888855-50.666687ZM95.4074097,130.944458c-3.4763794,16.666687-13.555542,22.555542-9.888855,50.666687-.222229-18.777832,13.0740356-38.333374,9.888855-50.666687Z" style="cursor: pointer; outline: none; -webkit-tap-highlight-color: transparent;"></path><path id="rectus_femoris" class="fill-gray-600 transition-all duration-200" aria-label="Rectus Femoris - Knee extension and hip flexion" role="button" tabindex="0" data-muscle-name="Rectus Femoris" data-muscle-common="Quad" data-muscle-function="Knee extension and hip flexion" data-muscle-region="legs" data-muscle-exercises="squats, leg press, lunges, leg extensions" data-keywords="rectus femoris quadriceps quads knee extension" d="M58.3703613,131.25c-.611084,17.638916,8.5925903,26.2129517,6.8148193,41.9907227-1.5111694,13.4118042-2.4815063,16.1481934-5.7037354,10.0370483-3.222168-6.111084-10.111084-32.4629517-1.111084-52.027771ZM96.5185547,183.277771c3.222168-6.111084,10.111084-32.4629517,1.111084-52.027771.611084,17.638916-8.5925903,26.2129517-6.8148193,41.9907227,1.5111694,13.4118042,2.4815063,16.1481934,5.7037354,10.0370483Z" style="cursor: pointer; outline: none; -webkit-tap-highlight-color: transparent;"></path><path id="vastus_lateralis" class="fill-gray-600 transition-all duration-200" aria-label="Vastus Lateralis - Knee extension" role="button" tabindex="0" data-muscle-name="Vastus Lateralis" data-muscle-common="Outer Quad" data-muscle-function="Knee extension" data-muscle-region="legs" data-muscle-exercises="squats, leg press, lunges, leg extensions" data-keywords="vastus lateralis quadriceps outer quad knee" d="M53.9147949,188.222229c-1.862915-5.6851807-3.4703369-19.6481323-1.7666626-31.944458,1.4815063,13.1851807,4.333313,23.888916,6.333313,28.888916s-2.7792358,8.5101929-4.5666504,3.055542ZM102.0852051,188.222229c1.862915-5.6851807,3.4703369-19.6481323,1.7666626-31.944458-1.4815063,13.1851807-4.333313,23.888916-6.333313,28.888916s2.7792358,8.5101929,4.5666504,3.055542Z" style="cursor: pointer; outline: none; -webkit-tap-highlight-color: transparent;"></path><path id="vastus_medialis" class="fill-gray-600 transition-all duration-200" aria-label="Vastus Medialis - Knee extension and stability" role="button" tabindex="0" data-muscle-name="Vastus Medialis" data-muscle-common="Inner Quad (Teardrop)" data-muscle-function="Knee extension and stability" data-muscle-region="legs" data-muscle-exercises="squats, leg extensions, lunges, step-ups" data-keywords="vastus medialis quadriceps inner quad teardrop VMO" d="M66.8703613,172.055542c1.944458,5.277771,4.666687,19.666687,0,19.666687-4.333313,0-.333313-14.111084,0-19.666687ZM89.1296387,191.722229c4.333313,0,.333313-14.111084,0-19.666687-1.944458,5.277771-4.666687,19.666687,0,19.666687Z" style="cursor: pointer; outline: none; -webkit-tap-highlight-color: transparent;"></path></g><g id="knees"><path id="knees" class="fill-gray-600 transition-all duration-200" aria-label="Knees - Leg flexion and extension" role="button" tabindex="0" data-muscle-name="Knees" data-muscle-common="Knee Joint" data-muscle-function="Leg flexion and extension" data-muscle-region="legs" data-muscle-exercises="squats, lunges, leg curls, leg extensions" data-keywords="knees knee joint leg movement" d="M63.3981323,187.888916h-3.055542c-1.555542,6.194397-4.583313,7.722229-6.4277954,2.972229,0,0-1.9333496,3.75-1.3777466,9.805542,1.4259033.166626,1.6851807-1.333374,3.055542-1.333374,2.055542,0,1.222229,9.833374,3.3692017,14.111145,0,0,1.3530273-2.166687,3.6863403-4.388916s6.444458-7.277771,6.7989502-15.4046021c-3.9232788.4286499-6.2434082-.8731689-6.0489502-5.7620239ZM63.2593384,194.333374c-1.211853-1.2525024-3.0291748-.7454834-4.2975464.27771.3464355-1.9772949,3.9766235-2.4949951,4.2975464-.27771ZM61.6650391,203.5916748c-1.1741943.5441284-2.8933105-.0274658-3.0169067-1.4249878,1.5964355,2.1131592,3.9620361.2197876,5.3887939-1.222229-.3482666,1.1278076-1.1749878,2.1685181-2.3718872,2.6472168ZM100.4074097,199.333313c1.3703613,0,1.6296387,1.5,3.055542,1.333374.555603-6.055542-1.3777466-9.805542-1.3777466-9.805542-1.8444824,4.75-4.8722534,3.222168-6.4277954-2.972229h-3.055542c.194458,4.888855-2.1256714,6.1906738-6.0489502,5.7620239.3544922,8.1268311,4.4656372,13.182373,6.7989502,15.4046021s3.6863403,4.388916,3.6863403,4.388916c2.1469727-4.277771,1.3136597-14.111145,3.3692017-14.111145ZM97.038208,194.611084c-1.2683716-1.0231934-3.0856934-1.5302124-4.2975464-.27771.3209229-2.2172852,3.9511108-1.699585,4.2975464.27771ZM94.3349609,203.5916748c-1.1968994-.4786987-2.0236206-1.5194092-2.3718872-2.6472168,1.4267578,1.4420166,3.7923584,3.3353882,5.3887939,1.222229-.1235962,1.397522-1.8427124,1.9691162-3.0169067,1.4249878Z" style="cursor: pointer; outline: none; -webkit-tap-highlight-color: transparent;"></path></g><g id="calves"><path id="peroneus_longus" class="fill-gray-600 transition-all duration-200" aria-label="Peroneus Longus - Ankle eversion and plantar flexion" role="button" tabindex="0" data-muscle-name="Peroneus Longus" data-muscle-common="Lateral Calf" data-muscle-function="Ankle eversion and plantar flexion" data-muscle-region="calves" data-muscle-exercises="calf raises, ankle circles, balance work" data-keywords="peroneus longus lateral calf ankle eversion" d="M53.3703613,201.5c-2.222229,7-3.333313,19.055542-2.722229,27.722229-3.833313-9.166687-2.333313-20.166687,2.722229-27.722229ZM102.6296387,201.5c2.222229,7,3.333313,19.055542,2.722229,27.722229,3.833313-9.166687,2.333313-20.166687-2.722229-27.722229Z" style="cursor: pointer; outline: none; -webkit-tap-highlight-color: transparent;"></path><path id="gastrocnemius" class="fill-gray-600 transition-all duration-200" aria-label="Gastrocnemius - Ankle plantar flexion and knee flexion" role="button" tabindex="0" data-muscle-name="Gastrocnemius" data-muscle-common="Calf" data-muscle-function="Ankle plantar flexion and knee flexion" data-muscle-region="calves" data-muscle-exercises="standing calf raises, jump rope, box jumps" data-keywords="gastrocnemius calves calf raises jumping" d="M64.4259033,209.666687c-1,6.611084,1.888916,20.777771-4.833313,27.444458.666687-9.055603-.166687-17.388916,0-20.111145s2.611084-5.666687,4.833313-7.333313ZM96.4074097,217c-.166687-2.722229-2.611084-5.666687-4.833313-7.333313,1,6.611084-1.888916,20.777771,4.833313,27.444458-.666687-9.055603.166687-17.388916,0-20.111145Z" style="cursor: pointer; outline: none; -webkit-tap-highlight-color: transparent;"></path><path id="tibialis_anterior" class="fill-gray-600 transition-all duration-200" aria-label="Tibialis Anterior - Ankle dorsiflexion" role="button" tabindex="0" data-muscle-name="Tibialis Anterior" data-muscle-common="Shin" data-muscle-function="Ankle dorsiflexion" data-muscle-region="calves" data-muscle-exercises="toe raises, ankle dorsiflexion, heel walks" data-keywords="tibialis anterior shin ankle dorsiflexion" d="M54.9814453,202.666687c.1004639,14.222229,3.277832,18.0925903,3.277832,37.5,0,8.8973999-2.277832,10.7851562-3.7407837,10.777771,0,0,.3703613-10.666687-1.777771-21.722229s.2963257-22.444458,2.2407227-26.555542ZM101.4815063,250.944458s-.3703613-10.666687,1.777771-21.722229-.2963257-22.444458-2.2407227-26.555542c-.1004639,14.222229-3.277832,18.0925903-3.277832,37.5,0,8.8973999,2.277832,10.7851562,3.7407837,10.777771Z" style="cursor: pointer; outline: none; -webkit-tap-highlight-color: transparent;"></path><path id="extensor_digitorum_longus" class="fill-gray-600 transition-all duration-200" aria-label="Extensor Digitorum Longus - Toe extension and ankle dorsiflexion" role="button" tabindex="0" data-muscle-name="Extensor Digitorum Longus" data-muscle-common="Toe Extensor" data-muscle-function="Toe extension and ankle dorsiflexion" data-muscle-region="calves" data-muscle-exercises="toe raises, ankle exercises, barefoot walking" data-keywords="extensor digitorum longus toe extension ankle" d="M50.3148193,250.666687s.222229-11.388916,0-19.111145c3.722229,3.055603,2.333313,19.111145,2.333313,19.111145h-2.333313ZM103.3518677,250.666687h2.333313s-.222229-11.388916,0-19.111145c-3.722229,3.055603-2.333313,19.111145-2.333313,19.111145Z" style="cursor: pointer; outline: none; -webkit-tap-highlight-color: transparent;"></path></g><g id="feet"><path id="feet" class="fill-gray-600 transition-all duration-200" aria-label="Feet - Balance, stability, and propulsion" role="button" tabindex="0" data-muscle-name="Feet" data-muscle-common="Foot Muscles" data-muscle-function="Balance, stability, and propulsion" data-muscle-region="feet" data-muscle-exercises="toe raises, balance exercises, barefoot training" data-keywords="feet foot muscles balance stability" d="M57.8703613,252.722229c1,3.666687-.333313,12.5-.444458,15.611084-.111084,3.111145.888916,7.111145-6.333313,7.111145s-9.222229-3.111145-6-7.166687,4.333313-7.777771,4.333313-15.555542h8.444458ZM106.5740967,252.722229h-8.444458c-1,3.666687.333313,12.5.444458,15.611084.111084,3.111145-.888916,7.111145,6.333313,7.111145s9.222229-3.111145,6-7.166687-4.333313-7.777771-4.333313-15.555542Z" style="cursor: pointer; outline: none; -webkit-tap-highlight-color: transparent;"></path></g></svg>
