<svg xmlns="http://www.w3.org/2000/svg" width="156" height="288" version="1.1" viewBox="0 0 156 288" role="img" aria-labelledby="muscle-map-title muscle-map-desc" data-component="muscle-map-back" data-interactive="true" data-muscle-count="27"><title id="muscle-map-title">Interactive Back Muscle Anatomy Map - ChunkItUp.com</title><desc id="muscle-map-desc">Anatomical diagram showing 27 major muscle groups of the human back, including trapezius, latissimus dorsi, erector spinae, deltoids, triceps, glutes, hamstrings, and calves. Click any muscle to select it for exercise targeting. Each muscle is labeled with its anatomical name, function, and recommended exercises for training.</desc><defs><linearGradient id="primary" x1="0%" y1="100%" x2="0%" y2="0%"><stop offset="0" stop-color="#ff6b6b"></stop><stop offset=".25" stop-color="#ee5a52"></stop><stop offset=".5" stop-color="#dc2626"></stop><stop offset=".75" stop-color="#b91c1c"></stop><stop offset="1" stop-color="#7f1d1d"></stop></linearGradient><linearGradient id="secondary" x1="0%" y1="100%" x2="0%" y2="0%"><stop offset="0" stop-color="#fbbf24"></stop><stop offset=".25" stop-color="#f59e0b"></stop><stop offset=".5" stop-color="#f97316"></stop><stop offset=".75" stop-color="#ea580c"></stop><stop offset="1" stop-color="#c2410c"></stop></linearGradient><linearGradient id="stabilizers" x1="0%" y1="100%" x2="0%" y2="0%"><stop offset="0" stop-color="#3b82f6"></stop><stop offset=".25" stop-color="#2563eb"></stop><stop offset=".5" stop-color="#1d4ed8"></stop><stop offset=".75" stop-color="#1e40af"></stop><stop offset="1" stop-color="#1e3a8a"></stop></linearGradient></defs><g id="head"><path id="head" class="fill-gray-600 transition-all duration-200" aria-label="Head and Neck - Head movement and stability" role="button" tabindex="0" data-muscle-name="Head and Neck" data-muscle-common="Head" data-muscle-function="Head movement and stability" data-muscle-region="upper" data-muscle-exercises="neck stretches, head rotations" data-keywords="head neck cervical spine movement" d="M68.4259033,35.7684937s.166687,2.777771.7963257,6.5c.6295776,3.722229,4.3703613,3.944458,8.777771,3.944458s8.1481934-.222229,8.777771-3.944458c.6296387-3.722229.7963257-6.5.7963257-6.5,1.666687-1.277771,2.722229-3.888855,3-6.5.277771-2.611084-1.166687-2.666626-2.333313-.944397.722229-4.5.3518066-15.611145-10.2407837-15.611145s-10.9630127,11.111145-10.2407837,15.611145c-1.166626-1.722229-2.611084-1.666687-2.333313.944397.277771,2.611145,1.333313,5.222229,3,6.5Z" style="cursor: pointer; outline: none; -webkit-tap-highlight-color: transparent;"></path></g><g id="upper_back"><path id="trapezius_upper" class="fill-gray-600 transition-all duration-200" aria-label="Upper Trapezius - Shoulder elevation and neck support" role="button" tabindex="0" data-muscle-name="Upper Trapezius" data-muscle-common="Upper Traps" data-muscle-function="Shoulder elevation and neck support" data-muscle-region="upper" data-muscle-exercises="shrugs, upright rows, overhead press" data-keywords="trapezius upper back shoulders neck shrugs" d="M95.555603,54.027771c-2.5185547-2.5184937-9.1851807-7.333313-9.1851807-7.333313,0,0-4.9630127,1.0370483-8.3704224,1.0370483s-8.3704224-1.0370483-8.3704224-1.0370483c0,0-6.666626,4.8148193-9.1851807,7.333313,12.3704224.0740967,17.555603,2.9629517,17.555603,2.9629517,0,0,5.1851807-2.888855,17.555603-2.9629517Z" style="cursor: pointer; outline: none; -webkit-tap-highlight-color: transparent;"></path><path id="trapezius" class="fill-gray-600 transition-all duration-200" aria-label="Trapezius - Shoulder blade movement and upper back stability" role="button" tabindex="0" data-muscle-name="Trapezius" data-muscle-common="Traps" data-muscle-function="Shoulder blade movement and upper back stability" data-muscle-region="upper" data-muscle-exercises="rows, deadlifts, face pulls, shrugs" data-keywords="trapezius back shoulder blade retraction scapula" d="M76.8148193,58.7129517v34c-9.944458-14-10.611145-33.333313-14.722229-36.944458,0,0,10.166626-.611084,14.722229,2.944458ZM79.1851807,58.7129517v34c9.944458-14,10.611145-33.333313,14.722229-36.944458,0,0-10.166626-.611084-14.722229,2.944458Z" style="cursor: pointer; outline: none; -webkit-tap-highlight-color: transparent;"></path><path id="infraspinatus" class="fill-gray-600 transition-all duration-200" aria-label="Infraspinatus - External shoulder rotation and stability" role="button" tabindex="0" data-muscle-name="Infraspinatus" data-muscle-common="Rotator Cuff" data-muscle-function="External shoulder rotation and stability" data-muscle-region="upper" data-muscle-exercises="external rotations, face pulls, band pull-aparts" data-keywords="infraspinatus rotator cuff shoulder stability external rotation" d="M60.0369873,57.6018677c4.111145,3.5,3.25,7.555542,6.5,16.944397-2.1087036-.5601196-11-3.833313-13.777771-11.222168,1.833374-3.833374,7.277771-5.722229,7.277771-5.722229ZM89.4630127,74.5462646c2.1087036-.5601196,11-3.833313,13.777771-11.222168-1.833374-3.833374-7.277771-5.722229-7.277771-5.722229-4.111145,3.5-3.25,7.555542-6.5,16.944397Z" style="cursor: pointer; outline: none; -webkit-tap-highlight-color: transparent;"></path><path id="teres_major" class="fill-gray-600 transition-all duration-200" aria-label="Teres Major - Shoulder extension and internal rotation" role="button" tabindex="0" data-muscle-name="Teres Major" data-muscle-common="Lat Helper" data-muscle-function="Shoulder extension and internal rotation" data-muscle-region="upper" data-muscle-exercises="pull-ups, lat pulldowns, rows" data-keywords="teres major shoulder extension lat pulldown rows" d="M52.7592163,75.5092773s-.4259033-4.8148193-.388855-7.444458c0,0,4.8518677,5.6296387,11.4814453,7.2962646,0,0-5.666626,1.888916-11.0925903.1481934ZM92.1481934,75.361084s5.666626,1.888916,11.0925903.1481934c0,0,.4259033-4.8148193.388855-7.444458,0,0-4.8518677,5.6296387-11.4814453,7.2962646Z" style="cursor: pointer; outline: none; -webkit-tap-highlight-color: transparent;"></path></g><g id="shoulders_back"><path id="deltoid_posterior_head" class="fill-gray-600 transition-all duration-200" aria-label="Posterior Deltoid - Shoulder extension and external rotation" role="button" tabindex="0" data-muscle-name="Posterior Deltoid" data-muscle-common="Rear Delts" data-muscle-function="Shoulder extension and external rotation" data-muscle-region="upper" data-muscle-exercises="reverse flyes, face pulls, bent-over rows, rear delt raises" data-keywords="posterior deltoid rear delts shoulders back" d="M58.4814453,55.7285156c-8.5,3.682251-7.9259033,11.5585327-7.9259033,11.5585327,0,0-4.5740967,5.0925903-7.9629517,7.2592163-.611145-8.388855,5.722229-19.388855,15.888855-18.817749ZM105.444458,67.2870483s4.5740967,5.0925903,7.9629517,7.2592163c.611145-8.388855-5.722229-19.388855-15.888855-18.817749,8.5,3.682251,7.9259033,11.5585327,7.9259033,11.5585327Z" style="cursor: pointer; outline: none; -webkit-tap-highlight-color: transparent;"></path><path id="deltoid_middle_head" class="fill-gray-600 transition-all duration-200" aria-label="Middle Deltoid - Shoulder abduction" role="button" tabindex="0" data-muscle-name="Middle Deltoid" data-muscle-common="Side Delts" data-muscle-function="Shoulder abduction" data-muscle-region="upper" data-muscle-exercises="lateral raises, overhead press, upright rows" data-keywords="middle deltoid lateral delts shoulders abduction" d="M40.7592163,77.6574097c-3.611084-7-1.333313-19,10.111145-21.555542-9.388916,4.944397-9.222229,14.722229-10.111145,21.555542ZM115.2407837,77.6574097c3.611084-7,1.333313-19-10.111145-21.555542,9.388916,4.944397,9.222229,14.722229,10.111145,21.555542Z" style="cursor: pointer; outline: none; -webkit-tap-highlight-color: transparent;"></path></g><g id="triceps"><path id="triceps_brachii_lateral_long" class="fill-gray-600 transition-all duration-200" aria-label="Triceps Brachii (Lateral and Long Head) - Elbow extension and shoulder stability" role="button" tabindex="0" data-muscle-name="Triceps Brachii (Lateral and Long Head)" data-muscle-common="Triceps" data-muscle-function="Elbow extension and shoulder stability" data-muscle-region="upper" data-muscle-exercises="close-grip bench press, overhead extensions, dips, pushdowns" data-keywords="triceps arms elbow extension pressing" d="M34.8518066,97.583313c1.1481934-4.2407227,2.2963257-10.2592163,4.0185547-15.8703613l11.6463623-11.388855s.3536377,7.388855,1.2424927,14.555542c-4,4.611084-6.2036743,14.777771-7.3518066,16.6296387-1.1481934,1.8518066-4.2963257,3.2962646-3.888916,1.6295776.4074097-1.666626,1.7407227-6.555542,2.333313-8.2592163.5925903-1.7037354,1.8518677-7.7037354-.8148193-7.9629517-2.666626-.2592773-4.9629517,9.5925903-5.5925903,11.1851807-.6295776,1.5925903-2.003418.9990234-1.5925903-.5185547ZM104.2407837,84.8796387c4,4.611084,6.2036743,14.777771,7.3518066,16.6296387,1.1481934,1.8518066,4.2963257,3.2962646,3.888916,1.6295776-.4074097-1.666626-1.7407227-6.555542-2.333313-8.2592163-.5925903-1.7037354-1.8518677-7.7037354.8148193-7.9629517,2.666626-.2592773,4.9629517,9.5925903,5.5925903,11.1851807.6295776,1.5925903,2.003418.9990234,1.5925903-.5185547-1.1481934-4.2407227-2.2963257-10.2592163-4.0185547-15.8703613l-11.6463623-11.388855s-.3536377,7.388855-1.2424927,14.555542Z" style="cursor: pointer; outline: none; -webkit-tap-highlight-color: transparent;"></path><path id="triceps_brachii_medial" class="fill-gray-600 transition-all duration-200" aria-label="Triceps Brachii (Medial Head) - Elbow extension" role="button" tabindex="0" data-muscle-name="Triceps Brachii (Medial Head)" data-muscle-common="Triceps Inner" data-muscle-function="Elbow extension" data-muscle-region="upper" data-muscle-exercises="reverse grip pushdowns, close-grip press, dips" data-keywords="triceps medial head arms extension" d="M41.7183838,94.4854736c-.5702515,2.171936-2.4313965,10.28302-2.9313965,11.366394-.5,1.083313-1.0305786,1.0045776-1.25-.555603-.25-1.777771-.260376-5.8329468.592041-8.541748,2.2709961-7.2166138,3.3251953-8.5273438,3.7919922-8.6435547.0888672.0087891.1489258.0234375.2353516.1586914.6933594,1.0825195-.0141602,4.6016846-.4379883,6.2158203ZM114.0789795,88.1109619c-.0888672.0087891-.1489258.0234375-.2353516.1586914-.6933594,1.0825195.0141602,4.6016846.4379883,6.2158203.5702515,2.171936,2.4313965,10.28302,2.9313965,11.366394.5,1.083313,1.0305786,1.0045776,1.25-.555603.25-1.777771.260376-5.8329468-.592041-8.541748-2.2709961-7.2166138-3.3251953-8.5273438-3.7919922-8.6435547Z" style="cursor: pointer; outline: none; -webkit-tap-highlight-color: transparent;"></path></g><g id="forearms"><path id="extensor_carpi_ulnaris" class="fill-gray-600 transition-all duration-200" aria-label="Extensor Carpi Ulnaris - Wrist extension and ulnar deviation" role="button" tabindex="0" data-muscle-name="Extensor Carpi Ulnaris" data-muscle-common="Wrist Extensor" data-muscle-function="Wrist extension and ulnar deviation" data-muscle-region="forearm" data-muscle-exercises="wrist extensions, reverse curls, farmer carries" data-keywords="forearm wrist extensor grip strength" d="M33.3703613,99.1018677c1,1.2962646,2.6296387,4.4074097,3,6.888855.3703613,2.4815063-.7037354,5.7407837-2.6296387,6.888916-.111145,0,.222229-10.888916-.3703613-13.777771ZM119.6296387,105.9907227c-.3703613,2.4815063.7037354,5.7407837,2.6296387,6.888916.111145,0-.222229-10.888916.3703613-13.777771-1,1.2962646-2.6296387,4.4074097-3,6.888855Z" style="cursor: pointer; outline: none; -webkit-tap-highlight-color: transparent;"></path><path id="flexor_carpi_ulnaris" class="fill-gray-600 transition-all duration-200" aria-label="Flexor Carpi Ulnaris - Wrist flexion and grip strength" role="button" tabindex="0" data-muscle-name="Flexor Carpi Ulnaris" data-muscle-common="Wrist Flexor" data-muscle-function="Wrist flexion and grip strength" data-muscle-region="forearm" data-muscle-exercises="wrist curls, farmer carries, dead hangs" data-keywords="forearm wrist flexor grip strength" d="M19.333313,132.3981323c3.8518677-7.5370483,9.2592773-28,10.222229-30.7407227s2.444458-1.7037354,2.7407227,0c.2963257,1.7036743.222229,7.7407227.2963257,11.8148193,0,0-9.7037354,19.1481323-10.888916,21.2592773-1.1851807,2.111084-4.041687.9369507-2.3703613-2.333374ZM136.666687,132.3981323c-3.8518677-7.5370483-9.2592773-28-10.222229-30.7407227s-2.444458-1.7037354-2.7407227,0c-.2963257,1.7036743-.222229,7.7407227-.2963257,11.8148193,0,0,9.7037354,19.1481323,10.888916,21.2592773,1.1851807,2.111084,4.041687.9369507,2.3703613-2.333374Z" style="cursor: pointer; outline: none; -webkit-tap-highlight-color: transparent;"></path><path id="brachioradialis" class="fill-gray-600 transition-all duration-200" aria-label="Brachioradialis - Elbow flexion and forearm rotation" role="button" tabindex="0" data-muscle-name="Brachioradialis" data-muscle-common="Forearm" data-muscle-function="Elbow flexion and forearm rotation" data-muscle-region="forearm" data-muscle-exercises="hammer curls, reverse curls, rows" data-keywords="brachioradialis forearm elbow flexion grip" d="M42.6295776,108.5092773c-1.333313,2.666626-13.1481323,20.5925903-14.4814453,23.3148193-1.333313,2.722168-1.277771,2.666626-1.333313,4.055542-.055603,1.388855-.888916,2.722229-2.388916,2.722229s-2.388916-2.555603-.277771-6.611145c2.111084-4.055542,13.5184937-22.3703613,17.0370483-25.9629517,2.1806641-2.2266235,2.777771-.1851807,1.444397,2.4815063ZM131.5740967,138.6018677c1.5,0,2.388916-2.555603.277771-6.611145-2.111084-4.055542-13.5184937-22.3703613-17.0370483-25.9629517-2.1806641-2.2266235-2.777771-.1851807-1.444397,2.4815063,1.333313,2.666626,13.1481323,20.5925903,14.4814453,23.3148193,1.333313,2.722168,1.277771,2.666626,1.333313,4.055542.055603,1.388855.888916,2.722229,2.388916,2.722229Z" style="cursor: pointer; outline: none; -webkit-tap-highlight-color: transparent;"></path></g><g id="hands"><path id="hands" class="fill-gray-600 transition-all duration-200" aria-label="Hands - Grip and fine motor control" role="button" tabindex="0" data-muscle-name="Hands" data-muscle-common="Hands and Fingers" data-muscle-function="Grip and fine motor control" data-muscle-region="forearm" data-muscle-exercises="grip trainers, dead hangs, farmer carries" data-keywords="hands fingers grip strength forearm" d="M25.9814453,144.2129517c-.138855,1.944458-1.583313,7.944458-1.777771,9.888916-.194458,1.944397-.2407227,4.9259033-.2407227,5.8148193,0,.888855-1.3518677,1.055542-1.3518677-.444458s-.611084-5.555542-.7592773-6.444458c-.1481323-.888916-1.2036743-.7592773-1.2036743.2592773,0,1.0184937-.333313,6.166626-.5370483,7.5184937-.2036743,1.3518677-2.0370483,1.2037354-1.9815063-.4259033.055603-1.6296387.055603-6.166687.0370483-7-.0184937-.833374-1.111084-.833374-1.222229-.0185547-.111084.8148193-.4814453,5.3518677-.6295776,6.611145-.1481934,1.2592773-1.6852417.9629517-1.666687-.4074097.0184937-1.3703613.0184937-5.722229.0184937-6.7592773s-.7592163.388916-1.0184937,1.4629517c-.2592773,1.0740967-.4815063,2.5-1.4074097,2.7963257-.9259033.2962646-.9096069-2.1933594-.1296387-4.2407227,1.0370483-2.722229,1.3292236-5.7019043,1.3292236-5.7019043-1.388916.138855-1.5328979-1.2055054-.0514526-1.612915.027771-1.527771.0092773-2.7963257.0648193-3.8240967.2232056-4.1290283,4.138916-4.305542,5.25-3.083313,1.111145,1.222229,3.166687,1.694397,5.111145,1.666626,1.944397-.027771,2.305542,2,2.166626,3.944458ZM143.888916,152.8240967c-1.0370483-2.722229-1.3292236-5.7019043-1.3292236-5.7019043,1.388916.138855,1.5328979-1.2055054.0514526-1.612915-.027771-1.527771-.0092773-2.7963257-.0648193-3.8240967-.2232056-4.1290283-4.138916-4.305542-5.25-3.083313-1.111145,1.222229-3.166687,1.694397-5.111145,1.666626-1.944397-.027771-2.305542,2-2.166626,3.944458.138855,1.944458,1.583313,7.944458,1.777771,9.888916.194458,1.944397.2407227,4.9259033.2407227,5.8148193,0,.888855,1.3518677,1.055542,1.3518677-.444458s.611084-5.555542.7592773-6.444458c.1481323-.888916,1.2036743-.7592773,1.2036743.2592773,0,1.0184937.333313,6.166626.5370483,7.5184937.2036743,1.3518677,2.0370483,1.2037354,1.9815063-.4259033-.055603-1.6296387-.055603-6.166687-.0370483-7,.0184937-.833374,1.111084-.833374,1.222229-.0185547.111084.8148193.4814453,5.3518677.6295776,6.611145.1481934,1.2592773,1.6852417.9629517,1.666687-.4074097-.0184937-1.3703613-.0184937-5.722229-.0184937-6.7592773s.7592163.388916,1.0184937,1.4629517c.2592773,1.0740967.4815063,2.5,1.4074097,2.7963257.9259033.2962646.9096069-2.1933594.1296387-4.2407227Z" style="cursor: pointer; outline: none; -webkit-tap-highlight-color: transparent;"></path></g><g id="lower_back"><path id="latissimus_dorsi" class="fill-gray-600 transition-all duration-200" aria-label="Latissimus Dorsi - Shoulder adduction, extension, and internal rotation" role="button" tabindex="0" data-muscle-name="Latissimus Dorsi" data-muscle-common="Lats" data-muscle-function="Shoulder adduction, extension, and internal rotation" data-muscle-region="middle" data-muscle-exercises="pull-ups, chin-ups, lat pulldowns, rows, deadlifts" data-keywords="latissimus dorsi lats back width pull-ups rowing" d="M64.3703613,117.361084c-2.7407837-4.666626-6.5925903-16.888855-9.0370483-22.666626s-2.444458-11.8518677-2.222229-17.0370483c.2963257.0740967,8.333313.6592407,13.4259033-1.4111328,4.4259644,11.0407715,9.0925903,17.7814941,9.0925903,17.7814941v2.0740967s-7.111084,3.333313-11.2592163,21.2592163ZM100.666687,94.694458c2.444458-5.777771,2.444458-11.8518677,2.222229-17.0370483-.2963257.0740967-8.333313.6592407-13.4259033-1.4111328-4.4259644,11.0407715-9.0925903,17.7814941-9.0925903,17.7814941v2.0740967s7.111084,3.333313,11.2592163,21.2592163c2.7407837-4.666626,6.5925903-16.888855,9.0370483-22.666626Z" style="cursor: pointer; outline: none; -webkit-tap-highlight-color: transparent;"></path><path id="erector_spinae" class="fill-gray-600 transition-all duration-200" aria-label="Erector Spinae - Spinal extension and posture maintenance" role="button" tabindex="0" data-muscle-name="Erector Spinae" data-muscle-common="Lower Back" data-muscle-function="Spinal extension and posture maintenance" data-muscle-region="lower" data-muscle-exercises="deadlifts, back extensions, good mornings, hyperextensions" data-keywords="erector spinae lower back spine posture deadlift" d="M78,128.472229c4.1481934-7.777771,12.3704224-9.6296387,12.3704224-9.6296387,0,0-5.1852417-21.2592773-12.3704224-21.2592773s-12.3704224,21.2592773-12.3704224,21.2592773c0,0,8.222229,1.8518677,12.3704224,9.6296387Z" style="cursor: pointer; outline: none; -webkit-tap-highlight-color: transparent;"></path></g><g id="glutes"><path id="gluteus_medius" class="fill-gray-600 transition-all duration-200" aria-label="Gluteus Medius - Hip abduction and pelvic stability" role="button" tabindex="0" data-muscle-name="Gluteus Medius" data-muscle-common="Hip Abductor" data-muscle-function="Hip abduction and pelvic stability" data-muscle-region="glutes" data-muscle-exercises="hip abductions, clamshells, side-lying leg raises, single-leg squats" data-keywords="gluteus medius glutes hip stability abduction" d="M62.0925903,118.472229s-3.5740967,2.3703613-6.0185547,2.888855c0,0-.222229-10,1.777771-15.333313,2.2963257,5.1851807,4.2407837,12.444458,4.2407837,12.444458ZM98.1481934,106.027771c-2.2963257,5.1851807-4.2407837,12.444458-4.2407837,12.444458,0,0,3.5740967,2.3703613,6.0185547,2.888855,0,0,.222229-10-1.777771-15.333313Z" style="cursor: pointer; outline: none; -webkit-tap-highlight-color: transparent;"></path><path id="gluteus_maximus" class="fill-gray-600 transition-all duration-200" aria-label="Gluteus Maximus - Hip extension and external rotation" role="button" tabindex="0" data-muscle-name="Gluteus Maximus" data-muscle-common="Glutes" data-muscle-function="Hip extension and external rotation" data-muscle-region="glutes" data-muscle-exercises="squats, deadlifts, hip thrusts, lunges, step-ups" data-keywords="gluteus maximus glutes hip extension squats deadlifts" d="M95.777771,121.8398438c-9.333313-1.0027466-16.6821899,4.8375244-17.777771,11.2249756-1.0955811-6.3874512-8.444458-12.2277222-17.777771-11.2249756-5.333374,9.2249756-6.9630127,35.8175659,5.4073486,35.8175659,7.0740967,0,12.3704224-7,12.3704224-7,0,0,5.2963257,7,12.3704224,7,12.3703613,0,10.7407227-26.5925903,5.4073486-35.8175659Z" style="cursor: pointer; outline: none; -webkit-tap-highlight-color: transparent;"></path></g><g id="thighs_backside"><path id="vastus_lateralis" class="fill-gray-600 transition-all duration-200" aria-label="Vastus Lateralis - Knee extension" role="button" tabindex="0" data-muscle-name="Vastus Lateralis" data-muscle-common="Outer Quad" data-muscle-function="Knee extension" data-muscle-region="legs" data-muscle-exercises="squats, leg press, lunges, leg extensions" data-keywords="vastus lateralis quadriceps knee extension squats" d="M52.1203613,150.5462646s1.25,5.444458,2.138855,12.944458c-1.888855,4.166687-4.277771,14.444458-4.277771,14.444458-1.055542-18.0925903,2.138916-27.388916,2.138916-27.388916ZM106.0185547,177.9351807c1.055542-18.0925903-2.138916-27.388916-2.138916-27.388916,0,0-1.25,5.444458-2.138855,12.944458,1.888855,4.166687,4.277771,14.444458,4.277771,14.444458Z" style="cursor: pointer; outline: none; -webkit-tap-highlight-color: transparent;"></path><path id="biceps_femoris" class="fill-gray-600 transition-all duration-200" aria-label="Biceps Femoris - Knee flexion and hip extension" role="button" tabindex="0" data-muscle-name="Biceps Femoris" data-muscle-common="Hamstring" data-muscle-function="Knee flexion and hip extension" data-muscle-region="legs" data-muscle-exercises="leg curls, Romanian deadlifts, good mornings, Nordic curls" data-keywords="biceps femoris hamstrings knee flexion leg curl" d="M62.2556152,160.5460815c-1.4671631,4.1851196-5.7353516,17.5557251-5.3667603,30.5187378-4.666626,5.4074097-8.0740356,10.888855-8.0740356,10.888855,2.5925903-8.9629517,1.2860718-19.111084,3.1986084-27.333313,1.4943848-6.4248657,4.489624-13.1663818,5.7276611-15.8066406.3095093-.6600952,1.0657959-.9776001,1.7538452-.7367554l1.8898315.661438c.7409668.2593384,1.1305542,1.0668335.8708496,1.8076782ZM107.1851807,201.9536743c-2.5925903-8.9629517-1.2860718-19.111084-3.1986084-27.333313-1.4943848-6.4248657-4.489624-13.1663818-5.7276611-15.8066406-.3095093-.6600952-1.0657959-.9776001-1.7538452-.7367554l-1.8898315.661438c-.7409668.2593384-1.1305542,1.0668335-.8708496,1.8076782,1.4671631,4.1851196,5.7353516,17.5557251,5.3667603,30.5187378,4.666626,5.4074097,8.0740356,10.888855,8.0740356,10.888855Z" style="cursor: pointer; outline: none; -webkit-tap-highlight-color: transparent;"></path><path id="semitendinosus" class="fill-gray-600 transition-all duration-200" aria-label="Semitendinosus - Knee flexion and hip extension" role="button" tabindex="0" data-muscle-name="Semitendinosus" data-muscle-common="Inner Hamstring" data-muscle-function="Knee flexion and hip extension" data-muscle-region="legs" data-muscle-exercises="leg curls, Romanian deadlifts, glute-ham raises" data-keywords="semitendinosus hamstrings knee flexion hip extension" d="M67.2592163,162.694458c.5185547,3.1851807-.444397,11.7036743-2.111084,16.222229-1.666687,4.5184937-4.333313,13.555542-3.2963257,28.3703613-3.9259033-8.1481934-4.5925903-30.4653931,1.1851807-45.56604,1.1124268-2.9073486,3.7037354-2.211731,4.222229.9734497ZM92.9630127,161.7210083c-1.1124268-2.9073486-3.7037354-2.211731-4.222229.9734497-.5185547,3.1851807.444397,11.7036743,2.111084,16.222229,1.666687,4.5184937,4.333313,13.555542,3.2963257,28.3703613,3.9259033-8.1481934,4.5925903-30.4653931-1.1851807-45.56604Z" style="cursor: pointer; outline: none; -webkit-tap-highlight-color: transparent;"></path><path id="adductor_magnus" class="fill-gray-600 transition-all duration-200" aria-label="Adductor Magnus - Hip adduction and extension" role="button" tabindex="0" data-muscle-name="Adductor Magnus" data-muscle-common="Inner Thigh" data-muscle-function="Hip adduction and extension" data-muscle-region="legs" data-muscle-exercises="adductor machine, sumo squats, side lunges" data-keywords="adductor magnus inner thigh hip adduction" d="M67.3998413,159.361084s6.0075684-.888855,8.748291-2.9629517c-.2935791,4.0027466-3.4074097,20.7407227-8.748291,29.333374,1.9334717-9.6296387,1.637146-23.333374,0-26.3704224ZM79.8518677,156.3981323c.2935791,4.0027466,3.4074097,20.7407227,8.748291,29.333374-1.9334717-9.6296387-1.637146-23.333374,0-26.3704224,0,0-6.0075684-.888855-8.748291-2.9629517Z" style="cursor: pointer; outline: none; -webkit-tap-highlight-color: transparent;"></path><path id="gracilis" class="fill-gray-600 transition-all duration-200" aria-label="Gracilis - Hip adduction and knee flexion" role="button" tabindex="0" data-muscle-name="Gracilis" data-muscle-common="Inner Thigh" data-muscle-function="Hip adduction and knee flexion" data-muscle-region="legs" data-muscle-exercises="leg curls, adductor exercises, side lunges" data-keywords="gracilis inner thigh hip adduction knee flexion" d="M66.5925903,179.9752197c.1343994,6.0644531.3703613,17.3118286-2.888916,24.4229126-1.111084-8.7407227.444458-20,2.888916-24.4229126ZM92.2963257,204.3981323c1.111084-8.7407227-.444458-20-2.888916-24.4229126-.1343994,6.0644531-.3703613,17.3118286,2.888916,24.4229126Z" style="cursor: pointer; outline: none; -webkit-tap-highlight-color: transparent;"></path></g><g id="calves_backside"><path id="soleus" class="fill-gray-600 transition-all duration-200" aria-label="Soleus - Ankle plantar flexion (bent knee)" role="button" tabindex="0" data-muscle-name="Soleus" data-muscle-common="Lower Calf" data-muscle-function="Ankle plantar flexion (bent knee)" data-muscle-region="calves" data-muscle-exercises="seated calf raises, calf press, walking" data-keywords="soleus calves ankle plantar flexion calf raises" d="M54.2592163,197.2129517c1.222229,5.555542-5.2962646,18.7407227-4.9259033,30.5185547-2.0740967,3.333313-6.666687,4.1481323-6.666687,4.1481323-.444397-9.7037354.756958-21.3620605,11.5925903-34.666687ZM113.333374,231.8796387c.444397-9.7037354-.756958-21.3620605-11.5925903-34.666687-1.222229,5.555542,5.2962646,18.7407227,4.9259033,30.5185547,2.0740967,3.333313,6.666687,4.1481323,6.666687,4.1481323Z" style="cursor: pointer; outline: none; -webkit-tap-highlight-color: transparent;"></path><path id="gastrocnemius" class="fill-gray-600 transition-all duration-200" aria-label="Gastrocnemius - Ankle plantar flexion and knee flexion" role="button" tabindex="0" data-muscle-name="Gastrocnemius" data-muscle-common="Calf" data-muscle-function="Ankle plantar flexion and knee flexion" data-muscle-region="calves" data-muscle-exercises="standing calf raises, jump rope, box jumps" data-keywords="gastrocnemius calves ankle flexion calf raises jumping" d="M59.7036743,209.0648193c.5185547,2.888855.1726685,13.111084-.2962646,18.7407227-.3320923,3.9862061-1.111145,8.444458-4,8.222229-2.888916-.222229-4.8148193-5.4815063-3.7037354-15.111084,1.111145-9.6296387,4.0740967-17.7037354,6-21.0370483-.0740967.222229,1.4815063,6.2962646,2,9.1851807ZM104.2963257,220.916687c-1.111145-9.6296387-4.0740967-17.7037354-6-21.0370483.0740967.222229-1.4815063,6.2962646-2,9.1851807-.5185547,2.888855-.1726685,13.111084.2962646,18.7407227.3320923,3.9862061,1.111145,8.444458,4,8.222229,2.888916-.222229,4.8148193-5.4815063,3.7037354-15.111084Z" style="cursor: pointer; outline: none; -webkit-tap-highlight-color: transparent;"></path></g><g id="feet"><path id="feet" class="fill-gray-600 transition-all duration-200" aria-label="Feet - Balance, stability, and propulsion" role="button" tabindex="0" data-muscle-name="Feet" data-muscle-common="Foot Muscles" data-muscle-function="Balance, stability, and propulsion" data-muscle-region="feet" data-muscle-exercises="toe raises, balance exercises, barefoot training" data-keywords="feet foot muscles balance stability ankle" d="M54.7407227,239.0648193s-4.8518677,11.4074097-4.2963257,15.555542c.555603,4.1481323,1.111145,10.0740967.5185547,13.1851807-.5925903,3.111145-2.5925903,7.4815063-6.0740967,7.4815063-3.4814453,0-5.0740356-2.6851807-5.5740356-4.8518677s-.611145-4.166687.611084-6.555542c1.222229-2.388916,2.6621094-8.222229,2.6643677-12.333374.0023193-4.111084,0-17.5184937,0-17.5184937,0,0,3.0393066.3703613,6.2245483-2.666687,1.6295776,5.4074097,5.9259033,7.7037354,5.9259033,7.7037354ZM113.409729,251.5462646c-.0023193-4.111084,0-17.5184937,0-17.5184937,0,0-3.0393066.3703613-6.2245483-2.666687-1.6295776,5.4074097-5.9259033,7.7037354-5.9259033,7.7037354,0,0,4.8518677,11.4074097,4.2963257,15.555542-.555603,4.1481323-1.111145,10.0740967-.5185547,13.1851807.5925903,3.111145,2.5925903,7.4815063,6.0740967,7.4815063,3.4814453,0,5.0740356-2.6851807,5.5740356-4.8518677s.611145-4.166687-.611084-6.555542c-1.222229-2.388916-2.6621094-8.222229-2.6643677-12.333374Z" style="cursor: pointer; outline: none; -webkit-tap-highlight-color: transparent;"></path></g><script type="application/ld+json">{"@context":"https://schema.org","@type":"AnatomicalStructure","name":"Human Back Muscle Anatomy","image":"https://chunkitup.com/svg/Back.svg","description":"Interactive anatomical diagram of the human back body muscles including trapezius, lats, glutes, and more.","associatedPathophysiology":"Back pain, strain, posture issues","subStructure":[]}</script></svg>
